<mxfile host="app.diagrams.net" modified="2024-01-28T20:37:41.698Z" agent="Mozilla/5.0 (Windows NT 10.0; Win64; x64) AppleWebKit/537.36 (KHTML, like Gecko) Chrome/120.0.0.0 Safari/537.36" etag="RVFu5CO1IGBQQuFzA4M6" version="23.0.2" type="github">
  <diagram name="Página-1" id="922G-k0kZGzfQCckNKfi">
    <mxGraphModel dx="1050" dy="522" grid="1" gridSize="10" guides="1" tooltips="1" connect="1" arrows="1" fold="1" page="1" pageScale="1" pageWidth="827" pageHeight="1169" math="0" shadow="0">
      <root>
        <mxCell id="0" />
        <mxCell id="1" parent="0" />
        <mxCell id="_eOLumRHyhKyvnsGZlA0-1" value="MAIN" style="rounded=0;whiteSpace=wrap;html=1;fillColor=#f8cecc;strokeColor=#b85450;" parent="1" vertex="1">
          <mxGeometry x="40" y="80" width="80" height="40" as="geometry" />
        </mxCell>
        <mxCell id="_eOLumRHyhKyvnsGZlA0-2" value="USUARIO" style="rounded=0;whiteSpace=wrap;html=1;fillColor=#dae8fc;strokeColor=#6c8ebf;" parent="1" vertex="1">
          <mxGeometry x="230" y="80" width="80" height="40" as="geometry" />
        </mxCell>
        <mxCell id="_eOLumRHyhKyvnsGZlA0-3" value="MODELO" style="rounded=0;whiteSpace=wrap;html=1;fillColor=#f8cecc;strokeColor=#b85450;" parent="1" vertex="1">
          <mxGeometry x="400" y="80" width="80" height="40" as="geometry" />
        </mxCell>
        <mxCell id="_eOLumRHyhKyvnsGZlA0-4" value="VISITA" style="rounded=0;whiteSpace=wrap;html=1;fillColor=#dae8fc;strokeColor=#6c8ebf;" parent="1" vertex="1">
          <mxGeometry x="560" y="80" width="80" height="40" as="geometry" />
        </mxCell>
        <mxCell id="_eOLumRHyhKyvnsGZlA0-5" value="CONTROLADOR" style="rounded=0;whiteSpace=wrap;html=1;fillColor=#f8cecc;strokeColor=#b85450;" parent="1" vertex="1">
          <mxGeometry x="690" y="80" width="110" height="40" as="geometry" />
        </mxCell>
        <mxCell id="_eOLumRHyhKyvnsGZlA0-15" value="" style="edgeStyle=orthogonalEdgeStyle;rounded=0;orthogonalLoop=1;jettySize=auto;html=1;" parent="1" source="_eOLumRHyhKyvnsGZlA0-7" target="_eOLumRHyhKyvnsGZlA0-14" edge="1">
          <mxGeometry relative="1" as="geometry">
            <Array as="points">
              <mxPoint x="85" y="330" />
              <mxPoint x="610" y="330" />
              <mxPoint x="610" y="425" />
            </Array>
          </mxGeometry>
        </mxCell>
        <mxCell id="_eOLumRHyhKyvnsGZlA0-7" value="Llama al método &quot;Operaciones (suma,resta,multiplicación y disivisión) Calculadora&quot;" style="rounded=1;whiteSpace=wrap;html=1;" parent="1" vertex="1">
          <mxGeometry x="10" y="160" width="150" height="90" as="geometry" />
        </mxCell>
        <mxCell id="_eOLumRHyhKyvnsGZlA0-8" value="" style="html=1;shadow=0;dashed=0;align=center;verticalAlign=middle;shape=mxgraph.arrows2.arrow;dy=0.6;dx=40;notch=0;" parent="1" vertex="1">
          <mxGeometry x="160" y="190" width="50" height="20" as="geometry" />
        </mxCell>
        <mxCell id="_eOLumRHyhKyvnsGZlA0-9" value="Ingresa dos # enteros y la operación" style="rounded=1;whiteSpace=wrap;html=1;" parent="1" vertex="1">
          <mxGeometry x="210" y="175" width="120" height="60" as="geometry" />
        </mxCell>
        <mxCell id="_eOLumRHyhKyvnsGZlA0-12" value="" style="html=1;shadow=0;dashed=0;align=center;verticalAlign=middle;shape=mxgraph.arrows2.arrow;dy=0.6;dx=40;notch=0;" parent="1" vertex="1">
          <mxGeometry x="340" y="195" width="50" height="15" as="geometry" />
        </mxCell>
        <mxCell id="_eOLumRHyhKyvnsGZlA0-13" value="Almacena los #enteros y realiza la operación ingresada" style="rounded=1;whiteSpace=wrap;html=1;" parent="1" vertex="1">
          <mxGeometry x="390" y="175" width="120" height="60" as="geometry" />
        </mxCell>
        <mxCell id="_eOLumRHyhKyvnsGZlA0-17" value="" style="edgeStyle=orthogonalEdgeStyle;rounded=0;orthogonalLoop=1;jettySize=auto;html=1;" parent="1" source="_eOLumRHyhKyvnsGZlA0-14" target="_eOLumRHyhKyvnsGZlA0-16" edge="1">
          <mxGeometry relative="1" as="geometry" />
        </mxCell>
        <mxCell id="_eOLumRHyhKyvnsGZlA0-14" value="La vista se inicia" style="rounded=1;whiteSpace=wrap;html=1;" parent="1" vertex="1">
          <mxGeometry x="545" y="370" width="110" height="60" as="geometry" />
        </mxCell>
        <mxCell id="_eOLumRHyhKyvnsGZlA0-19" value="" style="edgeStyle=orthogonalEdgeStyle;rounded=0;orthogonalLoop=1;jettySize=auto;html=1;" parent="1" source="_eOLumRHyhKyvnsGZlA0-16" target="_eOLumRHyhKyvnsGZlA0-18" edge="1">
          <mxGeometry relative="1" as="geometry" />
        </mxCell>
        <mxCell id="_eOLumRHyhKyvnsGZlA0-16" value="La vista solicita que el usuario ingrese #entero (dos veces) y la operación" style="rounded=1;whiteSpace=wrap;html=1;" parent="1" vertex="1">
          <mxGeometry x="330" y="450" width="160" height="80" as="geometry" />
        </mxCell>
        <mxCell id="_eOLumRHyhKyvnsGZlA0-21" value="" style="edgeStyle=orthogonalEdgeStyle;rounded=0;orthogonalLoop=1;jettySize=auto;html=1;" parent="1" source="_eOLumRHyhKyvnsGZlA0-18" target="_eOLumRHyhKyvnsGZlA0-20" edge="1">
          <mxGeometry relative="1" as="geometry" />
        </mxCell>
        <mxCell id="_eOLumRHyhKyvnsGZlA0-18" value="recibe los detalles" style="rounded=1;whiteSpace=wrap;html=1;" parent="1" vertex="1">
          <mxGeometry x="540" y="457.5" width="120" height="65" as="geometry" />
        </mxCell>
        <mxCell id="_eOLumRHyhKyvnsGZlA0-23" value="" style="edgeStyle=orthogonalEdgeStyle;rounded=0;orthogonalLoop=1;jettySize=auto;html=1;" parent="1" source="_eOLumRHyhKyvnsGZlA0-20" target="_eOLumRHyhKyvnsGZlA0-22" edge="1">
          <mxGeometry relative="1" as="geometry" />
        </mxCell>
        <mxCell id="_eOLumRHyhKyvnsGZlA0-20" value="Imprime los datos en la consola&amp;nbsp;" style="rounded=1;whiteSpace=wrap;html=1;" parent="1" vertex="1">
          <mxGeometry x="540" y="570" width="120" height="65" as="geometry" />
        </mxCell>
        <mxCell id="_eOLumRHyhKyvnsGZlA0-22" value="&lt;font style=&quot;vertical-align: inherit;&quot;&gt;&lt;font style=&quot;vertical-align: inherit;&quot;&gt;Sino, imprime: &lt;/font&gt;&lt;/font&gt;&lt;br&gt;&lt;font style=&quot;vertical-align: inherit;&quot;&gt;&lt;font style=&quot;vertical-align: inherit;&quot;&gt;&quot;Error,Ingrese # entero válido&quot; &lt;/font&gt;&lt;/font&gt;&lt;br&gt;&lt;font style=&quot;vertical-align: inherit;&quot;&gt;&lt;font style=&quot;vertical-align: inherit;&quot;&gt;&quot;Error, Ingrese una operación válida&quot;&lt;/font&gt;&lt;/font&gt;" style="rounded=1;whiteSpace=wrap;html=1;" parent="1" vertex="1">
          <mxGeometry x="522.5" y="700" width="155" height="95" as="geometry" />
        </mxCell>
      </root>
    </mxGraphModel>
  </diagram>
</mxfile>
